# xmcd
#
# Track frame offsets: 
#        150
#        4508
#        19785
#        34409
#        49453
#        65086
#        80391
#        95392
#        112783
#        128343
#        142408
#        158135
#        172833
#        189999
#        203888
#        221368
#        236619
#        251184
#        266947
#        286076
#
# Disc length: 4023 seconds
#
# Revision: 0
# Processed by: cddbd v1.5.2PL0 Copyright (c) Steve Scherf et al.
# Submitted via: ExactAudioCopyFreeDBPlugin 1.0
#
DISCID=190fb514
DTITLE=Алиби - The Best
DYEAR=1900
DGENRE=
TTITLE0=Intro
TTITLE1=Считалочка
TTITLE2=Мелодия дождя
TTITLE3=Уходи
TTITLE4=Сны о тебе
TTITLE5=Маски
TTITLE6=Стреляй в упор
TTITLE7=Не случайно
TTITLE8=С чистого листа
TTITLE9=Если мы
TTITLE10=Фламенко
TTITLE11=Да или нет
TTITLE12=Исповедь
TTITLE13=Танец любви
TTITLE14=Твоя
TTITLE15=Сигнал
TTITLE16=Bachata
TTITLE17=Шаги по краю
TTITLE18=Табу
TTITLE19=Не для прессы
EXTD=
EXTT0=
EXTT1=
EXTT2=
EXTT3=
EXTT4=
EXTT5=
EXTT6=
EXTT7=
EXTT8=
EXTT9=
EXTT10=
EXTT11=
EXTT12=
EXTT13=
EXTT14=
EXTT15=
EXTT16=
EXTT17=
EXTT18=
EXTT19=
PLAYORDER=
